<mxfile host="app.diagrams.net" modified="2024-02-29T08:23:05.227Z" agent="Mozilla/5.0 (Windows NT 10.0; Win64; x64) AppleWebKit/537.36 (KHTML, like Gecko) Chrome/122.0.0.0 Safari/537.36" etag="LaAA-DHEjUzGd0wwrFxF" version="23.1.7" type="github">
  <diagram name="Page-1" id="rrZ6mg99N3KnCUDMdktR">
    <mxGraphModel dx="880" dy="1534" grid="1" gridSize="10" guides="1" tooltips="1" connect="1" arrows="1" fold="1" page="1" pageScale="1" pageWidth="850" pageHeight="1100" math="0" shadow="0">
      <root>
        <mxCell id="0" />
        <mxCell id="1" parent="0" />
        <mxCell id="l2eI5rGPwK0Tam45J4ou-1" value="" style="rounded=0;whiteSpace=wrap;html=1;fillColor=#ffe6cc;strokeColor=#d79b00;" vertex="1" parent="1">
          <mxGeometry x="30" y="-409.43" width="820" height="745" as="geometry" />
        </mxCell>
        <mxCell id="l2eI5rGPwK0Tam45J4ou-2" value="" style="ellipse;shape=cloud;whiteSpace=wrap;html=1;fillColor=#d5e8d4;strokeColor=#82b366;" vertex="1" parent="1">
          <mxGeometry x="250" y="-409.43" width="210" height="130" as="geometry" />
        </mxCell>
        <mxCell id="l2eI5rGPwK0Tam45J4ou-3" value="" style="image;html=1;image=img/lib/clip_art/computers/Monitor_128x128.png" vertex="1" parent="1">
          <mxGeometry x="40" y="-399.43" width="120" height="109.43" as="geometry" />
        </mxCell>
        <mxCell id="l2eI5rGPwK0Tam45J4ou-4" value="" style="whiteSpace=wrap;html=1;aspect=fixed;fillColor=#d5e8d4;strokeColor=#82b366;" vertex="1" parent="1">
          <mxGeometry x="40" y="-160" width="380" height="380" as="geometry" />
        </mxCell>
        <mxCell id="l2eI5rGPwK0Tam45J4ou-5" value="" style="whiteSpace=wrap;html=1;aspect=fixed;fillColor=#d5e8d4;strokeColor=#82b366;" vertex="1" parent="1">
          <mxGeometry x="440" y="-160" width="380" height="380" as="geometry" />
        </mxCell>
        <mxCell id="l2eI5rGPwK0Tam45J4ou-6" value="" style="image;html=1;image=img/lib/clip_art/computers/Server_Rack_128x128.png" vertex="1" parent="1">
          <mxGeometry x="100" y="-255" width="80" height="80" as="geometry" />
        </mxCell>
        <mxCell id="l2eI5rGPwK0Tam45J4ou-7" value="" style="image;html=1;image=img/lib/clip_art/computers/Server_Rack_128x128.png" vertex="1" parent="1">
          <mxGeometry x="680" y="-250" width="80" height="80" as="geometry" />
        </mxCell>
        <mxCell id="l2eI5rGPwK0Tam45J4ou-8" value="" style="image;html=1;image=img/lib/clip_art/networking/Router_Icon_128x128.png" vertex="1" parent="1">
          <mxGeometry x="520" y="-379.43" width="70" height="70" as="geometry" />
        </mxCell>
        <mxCell id="l2eI5rGPwK0Tam45J4ou-9" value="" style="image;html=1;image=img/lib/clip_art/computers/Server_Tower_128x128.png" vertex="1" parent="1">
          <mxGeometry x="340" y="-150" width="80" height="80" as="geometry" />
        </mxCell>
        <mxCell id="l2eI5rGPwK0Tam45J4ou-10" value="" style="image;html=1;image=img/lib/clip_art/computers/Server_Tower_128x128.png" vertex="1" parent="1">
          <mxGeometry x="740" y="-150" width="80" height="80" as="geometry" />
        </mxCell>
        <mxCell id="l2eI5rGPwK0Tam45J4ou-11" value="&lt;font style=&quot;font-size: 14px;&quot;&gt;&lt;b&gt;APP SERVER&lt;/b&gt;&lt;/font&gt;" style="text;strokeColor=none;align=center;fillColor=none;html=1;verticalAlign=middle;whiteSpace=wrap;rounded=0;" vertex="1" parent="1">
          <mxGeometry x="350" y="-70" width="60" height="30" as="geometry" />
        </mxCell>
        <mxCell id="l2eI5rGPwK0Tam45J4ou-12" value="&lt;font style=&quot;font-size: 14px;&quot;&gt;&lt;b&gt;APP SERVER&lt;/b&gt;&lt;/font&gt;" style="text;strokeColor=none;align=center;fillColor=none;html=1;verticalAlign=middle;whiteSpace=wrap;rounded=0;" vertex="1" parent="1">
          <mxGeometry x="750" y="-70" width="60" height="30" as="geometry" />
        </mxCell>
        <mxCell id="l2eI5rGPwK0Tam45J4ou-13" value="" style="image;html=1;image=img/lib/clip_art/computers/Server_128x128.png" vertex="1" parent="1">
          <mxGeometry x="50" y="-150" width="80" height="80" as="geometry" />
        </mxCell>
        <mxCell id="l2eI5rGPwK0Tam45J4ou-14" value="" style="image;html=1;image=img/lib/clip_art/computers/Server_128x128.png" vertex="1" parent="1">
          <mxGeometry x="450" y="-150" width="80" height="80" as="geometry" />
        </mxCell>
        <mxCell id="l2eI5rGPwK0Tam45J4ou-15" value="&lt;font style=&quot;font-size: 14px;&quot;&gt;&lt;b&gt;WEB SERVER (NGINIX)&lt;/b&gt;&lt;/font&gt;" style="text;strokeColor=none;align=center;fillColor=none;html=1;verticalAlign=middle;whiteSpace=wrap;rounded=0;" vertex="1" parent="1">
          <mxGeometry x="50" y="-70" width="60" height="30" as="geometry" />
        </mxCell>
        <mxCell id="l2eI5rGPwK0Tam45J4ou-16" value="&lt;font style=&quot;font-size: 14px;&quot;&gt;&lt;b&gt;WEB SERVER (NGINIX)&lt;/b&gt;&lt;/font&gt;" style="text;strokeColor=none;align=center;fillColor=none;html=1;verticalAlign=middle;whiteSpace=wrap;rounded=0;" vertex="1" parent="1">
          <mxGeometry x="460" y="-70" width="60" height="30" as="geometry" />
        </mxCell>
        <mxCell id="l2eI5rGPwK0Tam45J4ou-17" value="" style="image;html=1;image=img/lib/clip_art/computers/Database_128x128.png" vertex="1" parent="1">
          <mxGeometry x="315" y="40" width="80" height="120" as="geometry" />
        </mxCell>
        <mxCell id="l2eI5rGPwK0Tam45J4ou-18" value="" style="image;html=1;image=img/lib/clip_art/computers/Database_128x128.png" vertex="1" parent="1">
          <mxGeometry x="720" y="50" width="80" height="120" as="geometry" />
        </mxCell>
        <mxCell id="l2eI5rGPwK0Tam45J4ou-19" value="&lt;b style=&quot;border-color: var(--border-color); font-size: 14px;&quot;&gt;DATABASE&lt;br style=&quot;border-color: var(--border-color);&quot;&gt;(MY SQL)&lt;/b&gt;" style="text;strokeColor=none;align=center;fillColor=none;html=1;verticalAlign=middle;whiteSpace=wrap;rounded=0;" vertex="1" parent="1">
          <mxGeometry x="325" y="170" width="60" height="30" as="geometry" />
        </mxCell>
        <mxCell id="l2eI5rGPwK0Tam45J4ou-20" value="&lt;b style=&quot;border-color: var(--border-color); font-size: 14px;&quot;&gt;DATABASE&lt;br style=&quot;border-color: var(--border-color);&quot;&gt;(MY SQL)&lt;/b&gt;" style="text;strokeColor=none;align=center;fillColor=none;html=1;verticalAlign=middle;whiteSpace=wrap;rounded=0;" vertex="1" parent="1">
          <mxGeometry x="740" y="170" width="60" height="30" as="geometry" />
        </mxCell>
        <mxCell id="l2eI5rGPwK0Tam45J4ou-21" value="" style="image;html=1;image=img/lib/clip_art/general/Full_Folder_128x128.png" vertex="1" parent="1">
          <mxGeometry x="60" y="70" width="100" height="90" as="geometry" />
        </mxCell>
        <mxCell id="l2eI5rGPwK0Tam45J4ou-22" value="" style="image;html=1;image=img/lib/clip_art/general/Full_Folder_128x128.png" vertex="1" parent="1">
          <mxGeometry x="470" y="65" width="100" height="90" as="geometry" />
        </mxCell>
        <mxCell id="l2eI5rGPwK0Tam45J4ou-23" value="&lt;font style=&quot;font-size: 14px;&quot;&gt;&lt;b&gt;APPLICATION FILES (CODE BASE)&lt;/b&gt;&lt;/font&gt;" style="text;strokeColor=none;align=center;fillColor=none;html=1;verticalAlign=middle;whiteSpace=wrap;rounded=0;" vertex="1" parent="1">
          <mxGeometry x="70" y="170" width="60" height="30" as="geometry" />
        </mxCell>
        <mxCell id="l2eI5rGPwK0Tam45J4ou-24" value="&lt;font style=&quot;font-size: 14px;&quot;&gt;&lt;b&gt;APPLICATION FILES (CODE BASE)&lt;/b&gt;&lt;/font&gt;" style="text;strokeColor=none;align=center;fillColor=none;html=1;verticalAlign=middle;whiteSpace=wrap;rounded=0;" vertex="1" parent="1">
          <mxGeometry x="470" y="170" width="60" height="30" as="geometry" />
        </mxCell>
        <mxCell id="l2eI5rGPwK0Tam45J4ou-25" value="" style="edgeStyle=none;orthogonalLoop=1;jettySize=auto;html=1;rounded=0;exitX=0.833;exitY=0.086;exitDx=0;exitDy=0;exitPerimeter=0;" edge="1" parent="1">
          <mxGeometry width="80" relative="1" as="geometry">
            <mxPoint x="159.96000000000004" y="-365.78901999999994" as="sourcePoint" />
            <mxPoint x="490" y="-365" as="targetPoint" />
            <Array as="points" />
          </mxGeometry>
        </mxCell>
        <mxCell id="l2eI5rGPwK0Tam45J4ou-26" value="" style="edgeStyle=none;orthogonalLoop=1;jettySize=auto;html=1;rounded=0;" edge="1" parent="1">
          <mxGeometry width="80" relative="1" as="geometry">
            <mxPoint x="490" y="-320" as="sourcePoint" />
            <mxPoint x="160.00000000000006" y="-319.9990199999999" as="targetPoint" />
            <Array as="points" />
          </mxGeometry>
        </mxCell>
        <mxCell id="l2eI5rGPwK0Tam45J4ou-27" value="&lt;font style=&quot;font-size: 18px;&quot;&gt;&lt;b&gt;CLIENT&lt;/b&gt;&lt;/font&gt;" style="text;strokeColor=none;align=center;fillColor=none;html=1;verticalAlign=middle;whiteSpace=wrap;rounded=0;" vertex="1" parent="1">
          <mxGeometry x="40" y="-290" width="60" height="30" as="geometry" />
        </mxCell>
        <mxCell id="l2eI5rGPwK0Tam45J4ou-28" value="&lt;font style=&quot;font-size: 12px;&quot;&gt;&lt;b&gt;LOAD BALANCER&lt;br&gt;(HAPROXY)&lt;/b&gt;&lt;/font&gt;" style="text;strokeColor=none;align=center;fillColor=none;html=1;verticalAlign=middle;whiteSpace=wrap;rounded=0;" vertex="1" parent="1">
          <mxGeometry x="550" y="-399.43" width="110" height="30" as="geometry" />
        </mxCell>
        <mxCell id="l2eI5rGPwK0Tam45J4ou-29" value="&lt;b&gt;ACTIVE-PASSIVE&lt;/b&gt;" style="text;strokeColor=none;align=center;fillColor=none;html=1;verticalAlign=middle;whiteSpace=wrap;rounded=0;" vertex="1" parent="1">
          <mxGeometry x="600" y="-359.43" width="110" height="30" as="geometry" />
        </mxCell>
        <mxCell id="l2eI5rGPwK0Tam45J4ou-30" value="" style="endArrow=classic;startArrow=classic;html=1;rounded=0;" edge="1" parent="1">
          <mxGeometry width="50" height="50" relative="1" as="geometry">
            <mxPoint x="367.5" y="-188.78" as="sourcePoint" />
            <mxPoint x="492.5" y="-309.4284375" as="targetPoint" />
          </mxGeometry>
        </mxCell>
        <mxCell id="l2eI5rGPwK0Tam45J4ou-31" value="" style="endArrow=classic;startArrow=classic;html=1;rounded=0;" edge="1" parent="1">
          <mxGeometry width="50" height="50" relative="1" as="geometry">
            <mxPoint x="610" y="-180" as="sourcePoint" />
            <mxPoint x="574.92" y="-310" as="targetPoint" />
          </mxGeometry>
        </mxCell>
        <mxCell id="l2eI5rGPwK0Tam45J4ou-32" value="HTTP REQUEST&amp;nbsp; 8.8.8.8." style="text;strokeColor=none;align=center;fillColor=none;html=1;verticalAlign=middle;whiteSpace=wrap;rounded=0;" vertex="1" parent="1">
          <mxGeometry x="160" y="-389.43" width="150" height="30" as="geometry" />
        </mxCell>
        <mxCell id="l2eI5rGPwK0Tam45J4ou-33" value="HTTP RESPONSE&amp;nbsp;&amp;nbsp;" style="text;strokeColor=none;align=center;fillColor=none;html=1;verticalAlign=middle;whiteSpace=wrap;rounded=0;" vertex="1" parent="1">
          <mxGeometry x="165" y="-340" width="115" height="30" as="geometry" />
        </mxCell>
        <mxCell id="l2eI5rGPwK0Tam45J4ou-34" value="&lt;font style=&quot;font-size: 14px;&quot;&gt;&lt;b&gt;INTERNET&lt;/b&gt;&lt;/font&gt;" style="text;strokeColor=none;align=center;fillColor=none;html=1;verticalAlign=middle;whiteSpace=wrap;rounded=0;" vertex="1" parent="1">
          <mxGeometry x="340" y="-350" width="60" height="30" as="geometry" />
        </mxCell>
        <mxCell id="l2eI5rGPwK0Tam45J4ou-35" value="&lt;b&gt;&lt;font style=&quot;font-size: 14px;&quot;&gt;SERVER&lt;/font&gt;&lt;/b&gt;" style="text;strokeColor=none;align=center;fillColor=none;html=1;verticalAlign=middle;whiteSpace=wrap;rounded=0;" vertex="1" parent="1">
          <mxGeometry x="180" y="-225" width="60" height="30" as="geometry" />
        </mxCell>
        <mxCell id="l2eI5rGPwK0Tam45J4ou-36" value="&lt;b&gt;&lt;font style=&quot;font-size: 14px;&quot;&gt;SERVER&lt;/font&gt;&lt;/b&gt;" style="text;strokeColor=none;align=center;fillColor=none;html=1;verticalAlign=middle;whiteSpace=wrap;rounded=0;" vertex="1" parent="1">
          <mxGeometry x="750" y="-230" width="60" height="30" as="geometry" />
        </mxCell>
        <mxCell id="l2eI5rGPwK0Tam45J4ou-37" value="HTTP" style="text;strokeColor=none;align=center;fillColor=none;html=1;verticalAlign=middle;whiteSpace=wrap;rounded=0;rotation=270;" vertex="1" parent="1">
          <mxGeometry x="425" y="-240" width="60" height="30" as="geometry" />
        </mxCell>
        <mxCell id="l2eI5rGPwK0Tam45J4ou-38" value="HTTP" style="text;strokeColor=none;align=center;fillColor=none;html=1;verticalAlign=middle;whiteSpace=wrap;rounded=0;rotation=270;" vertex="1" parent="1">
          <mxGeometry x="570" y="-260" width="60" height="30" as="geometry" />
        </mxCell>
        <mxCell id="l2eI5rGPwK0Tam45J4ou-39" value="" style="endArrow=classic;startArrow=classic;html=1;rounded=0;entryX=-0.05;entryY=0.388;entryDx=0;entryDy=0;entryPerimeter=0;" edge="1" parent="1">
          <mxGeometry width="50" height="50" relative="1" as="geometry">
            <mxPoint x="155" y="-119.98" as="sourcePoint" />
            <mxPoint x="331" y="-118.96000000000004" as="targetPoint" />
            <Array as="points">
              <mxPoint x="225" y="-119" />
            </Array>
          </mxGeometry>
        </mxCell>
        <mxCell id="l2eI5rGPwK0Tam45J4ou-40" value="" style="endArrow=classic;startArrow=classic;html=1;rounded=0;entryX=0.526;entryY=0.395;entryDx=0;entryDy=0;entryPerimeter=0;" edge="1" parent="1">
          <mxGeometry width="50" height="50" relative="1" as="geometry">
            <mxPoint x="89.62" y="59.9" as="sourcePoint" />
            <mxPoint x="89.50000000000011" y="-30.000000000000092" as="targetPoint" />
          </mxGeometry>
        </mxCell>
        <mxCell id="l2eI5rGPwK0Tam45J4ou-41" value="" style="endArrow=classic;startArrow=classic;html=1;rounded=0;entryX=0.526;entryY=0.395;entryDx=0;entryDy=0;entryPerimeter=0;" edge="1" parent="1">
          <mxGeometry width="50" height="50" relative="1" as="geometry">
            <mxPoint x="379.62" y="50.00000000000001" as="sourcePoint" />
            <mxPoint x="379.5000000000001" y="-39.90000000000009" as="targetPoint" />
          </mxGeometry>
        </mxCell>
        <mxCell id="l2eI5rGPwK0Tam45J4ou-42" value="" style="endArrow=classic;startArrow=classic;html=1;rounded=0;entryX=-0.05;entryY=0.388;entryDx=0;entryDy=0;entryPerimeter=0;" edge="1" parent="1">
          <mxGeometry width="50" height="50" relative="1" as="geometry">
            <mxPoint x="544" y="-110.51" as="sourcePoint" />
            <mxPoint x="720" y="-109.49000000000004" as="targetPoint" />
            <Array as="points">
              <mxPoint x="614" y="-109.53" />
            </Array>
          </mxGeometry>
        </mxCell>
        <mxCell id="l2eI5rGPwK0Tam45J4ou-43" value="" style="endArrow=classic;startArrow=classic;html=1;rounded=0;entryX=0.526;entryY=0.395;entryDx=0;entryDy=0;entryPerimeter=0;" edge="1" parent="1">
          <mxGeometry width="50" height="50" relative="1" as="geometry">
            <mxPoint x="499.62" y="65" as="sourcePoint" />
            <mxPoint x="499.5000000000001" y="-24.90000000000009" as="targetPoint" />
          </mxGeometry>
        </mxCell>
        <mxCell id="l2eI5rGPwK0Tam45J4ou-44" value="" style="endArrow=classic;startArrow=classic;html=1;rounded=0;entryX=0.526;entryY=0.395;entryDx=0;entryDy=0;entryPerimeter=0;" edge="1" parent="1">
          <mxGeometry width="50" height="50" relative="1" as="geometry">
            <mxPoint x="779.62" y="59.9" as="sourcePoint" />
            <mxPoint x="779.5000000000001" y="-30.000000000000092" as="targetPoint" />
          </mxGeometry>
        </mxCell>
        <mxCell id="l2eI5rGPwK0Tam45J4ou-45" value="" style="edgeStyle=segmentEdgeStyle;endArrow=classic;html=1;curved=0;rounded=0;endSize=8;startSize=8;exitX=0.39;exitY=0.872;exitDx=0;exitDy=0;exitPerimeter=0;" edge="1" parent="1" source="l2eI5rGPwK0Tam45J4ou-1">
          <mxGeometry width="50" height="50" relative="1" as="geometry">
            <mxPoint x="630" y="270" as="sourcePoint" />
            <mxPoint x="680" y="220" as="targetPoint" />
            <Array as="points">
              <mxPoint x="350" y="240" />
              <mxPoint x="350" y="220" />
              <mxPoint x="310" y="220" />
              <mxPoint x="310" y="290" />
              <mxPoint x="680" y="290" />
            </Array>
          </mxGeometry>
        </mxCell>
        <mxCell id="l2eI5rGPwK0Tam45J4ou-46" value="&lt;font style=&quot;font-size: 14px;&quot;&gt;&lt;b&gt;MASTER&lt;/b&gt;&lt;/font&gt;" style="text;strokeColor=none;align=center;fillColor=none;html=1;verticalAlign=middle;whiteSpace=wrap;rounded=0;" vertex="1" parent="1">
          <mxGeometry x="290" y="290" width="60" height="30" as="geometry" />
        </mxCell>
        <mxCell id="l2eI5rGPwK0Tam45J4ou-47" value="&lt;font style=&quot;font-size: 14px;&quot;&gt;&lt;b&gt;REPLICA&lt;/b&gt;&lt;/font&gt;" style="text;strokeColor=none;align=center;fillColor=none;html=1;verticalAlign=middle;whiteSpace=wrap;rounded=0;" vertex="1" parent="1">
          <mxGeometry x="680" y="290" width="60" height="30" as="geometry" />
        </mxCell>
        <mxCell id="l2eI5rGPwK0Tam45J4ou-48" value="" style="shape=actor;whiteSpace=wrap;html=1;fillColor=#1ba1e2;fontColor=#ffffff;strokeColor=#006EAF;" vertex="1" parent="1">
          <mxGeometry x="50" y="240" width="40" height="60" as="geometry" />
        </mxCell>
        <mxCell id="l2eI5rGPwK0Tam45J4ou-49" value="" style="shape=actor;whiteSpace=wrap;html=1;fillColor=#1ba1e2;fontColor=#ffffff;strokeColor=#006EAF;" vertex="1" parent="1">
          <mxGeometry x="600" y="295.57" width="30" height="40" as="geometry" />
        </mxCell>
        <mxCell id="l2eI5rGPwK0Tam45J4ou-50" value="&lt;font style=&quot;font-size: 14px;&quot;&gt;&lt;b&gt;LAMP&lt;/b&gt;&lt;/font&gt;" style="text;strokeColor=none;align=center;fillColor=none;html=1;verticalAlign=middle;whiteSpace=wrap;rounded=0;" vertex="1" parent="1">
          <mxGeometry x="90" y="270" width="60" height="30" as="geometry" />
        </mxCell>
        <mxCell id="l2eI5rGPwK0Tam45J4ou-51" value="&lt;font style=&quot;font-size: 14px;&quot;&gt;&lt;b&gt;LAMP&lt;/b&gt;&lt;/font&gt;" style="text;strokeColor=none;align=center;fillColor=none;html=1;verticalAlign=middle;whiteSpace=wrap;rounded=0;" vertex="1" parent="1">
          <mxGeometry x="540" y="300.57" width="60" height="30" as="geometry" />
        </mxCell>
        <mxCell id="l2eI5rGPwK0Tam45J4ou-54" value="&lt;font style=&quot;font-size: 14px;&quot;&gt;FIREWALL&lt;/font&gt;" style="text;strokeColor=none;align=center;fillColor=none;html=1;verticalAlign=middle;whiteSpace=wrap;rounded=0;" vertex="1" parent="1">
          <mxGeometry x="442.5" y="-409.43" width="60" height="30" as="geometry" />
        </mxCell>
        <mxCell id="l2eI5rGPwK0Tam45J4ou-55" value="" style="image;aspect=fixed;perimeter=ellipsePerimeter;html=1;align=center;shadow=0;dashed=0;spacingTop=3;image=img/lib/active_directory/secure.svg;" vertex="1" parent="1">
          <mxGeometry x="512.5" y="-310" width="25.6" height="40" as="geometry" />
        </mxCell>
        <mxCell id="l2eI5rGPwK0Tam45J4ou-56" value="SSL&lt;br&gt;HTTPS" style="text;strokeColor=none;align=center;fillColor=none;html=1;verticalAlign=middle;whiteSpace=wrap;rounded=0;" vertex="1" parent="1">
          <mxGeometry x="490" y="-280" width="60" height="30" as="geometry" />
        </mxCell>
        <mxCell id="l2eI5rGPwK0Tam45J4ou-58" value="" style="endArrow=none;startArrow=none;endFill=0;startFill=0;endSize=8;html=1;verticalAlign=bottom;labelBackgroundColor=none;strokeWidth=3;rounded=0;entryX=0.488;entryY=0.321;entryDx=0;entryDy=0;entryPerimeter=0;exitX=0.037;exitY=0.321;exitDx=0;exitDy=0;exitPerimeter=0;" edge="1" parent="1" source="l2eI5rGPwK0Tam45J4ou-1" target="l2eI5rGPwK0Tam45J4ou-1">
          <mxGeometry width="160" relative="1" as="geometry">
            <mxPoint x="155" y="-170" as="sourcePoint" />
            <mxPoint x="315" y="-170" as="targetPoint" />
          </mxGeometry>
        </mxCell>
        <mxCell id="l2eI5rGPwK0Tam45J4ou-60" value="" style="endArrow=none;startArrow=none;endFill=0;startFill=0;endSize=8;html=1;verticalAlign=bottom;labelBackgroundColor=none;strokeWidth=3;rounded=0;entryX=0.488;entryY=0.321;entryDx=0;entryDy=0;entryPerimeter=0;exitX=0.037;exitY=0.321;exitDx=0;exitDy=0;exitPerimeter=0;" edge="1" parent="1">
          <mxGeometry width="160" relative="1" as="geometry">
            <mxPoint x="445" y="-171" as="sourcePoint" />
            <mxPoint x="822.44" y="-174.31999999999994" as="targetPoint" />
          </mxGeometry>
        </mxCell>
        <mxCell id="l2eI5rGPwK0Tam45J4ou-62" value="" style="html=1;points=[];perimeter=orthogonalPerimeter;fillColor=strokeColor;" vertex="1" parent="1">
          <mxGeometry x="497.5" y="-389.43" width="5" height="80" as="geometry" />
        </mxCell>
        <mxCell id="l2eI5rGPwK0Tam45J4ou-63" value="" style="html=1;points=[];perimeter=orthogonalPerimeter;fillColor=#1ba1e2;fontColor=#ffffff;strokeColor=#006EAF;" vertex="1" parent="1">
          <mxGeometry x="512.5" y="-390" width="5" height="80" as="geometry" />
        </mxCell>
        <mxCell id="l2eI5rGPwK0Tam45J4ou-64" value="&lt;font style=&quot;font-size: 14px;&quot;&gt;FIREWALL&lt;/font&gt;" style="text;strokeColor=none;align=center;fillColor=none;html=1;verticalAlign=middle;whiteSpace=wrap;rounded=0;" vertex="1" parent="1">
          <mxGeometry x="290" y="-200" width="60" height="30" as="geometry" />
        </mxCell>
        <mxCell id="l2eI5rGPwK0Tam45J4ou-65" value="&lt;font style=&quot;font-size: 14px;&quot;&gt;FIREWALL&lt;/font&gt;" style="text;strokeColor=none;align=center;fillColor=none;html=1;verticalAlign=middle;whiteSpace=wrap;rounded=0;" vertex="1" parent="1">
          <mxGeometry x="525" y="-200" width="60" height="30" as="geometry" />
        </mxCell>
        <mxCell id="l2eI5rGPwK0Tam45J4ou-67" value="" style="endArrow=classic;html=1;rounded=0;" edge="1" parent="1">
          <mxGeometry width="50" height="50" relative="1" as="geometry">
            <mxPoint x="630" y="-290" as="sourcePoint" />
            <mxPoint x="600" y="-320" as="targetPoint" />
          </mxGeometry>
        </mxCell>
        <mxCell id="l2eI5rGPwK0Tam45J4ou-68" value="DATADOG MC" style="text;strokeColor=none;align=center;fillColor=none;html=1;verticalAlign=middle;whiteSpace=wrap;rounded=0;" vertex="1" parent="1">
          <mxGeometry x="620" y="-290" width="60" height="30" as="geometry" />
        </mxCell>
        <mxCell id="l2eI5rGPwK0Tam45J4ou-69" value="" style="shape=mxgraph.signs.animals.dog_on_leash;html=1;pointerEvents=1;fillColor=#000000;strokeColor=none;verticalLabelPosition=bottom;verticalAlign=top;align=center;" vertex="1" parent="1">
          <mxGeometry x="750" y="-409.43" width="97" height="91" as="geometry" />
        </mxCell>
        <mxCell id="l2eI5rGPwK0Tam45J4ou-70" value="DATADOG MONITORING SERVICES" style="text;strokeColor=none;align=center;fillColor=none;html=1;verticalAlign=middle;whiteSpace=wrap;rounded=0;" vertex="1" parent="1">
          <mxGeometry x="720" y="-310" width="110" height="30" as="geometry" />
        </mxCell>
      </root>
    </mxGraphModel>
  </diagram>
</mxfile>
